<mxfile host="Electron" modified="2023-05-16T14:19:02.281Z" agent="Mozilla/5.0 (Macintosh; Intel Mac OS X 10_15_7) AppleWebKit/537.36 (KHTML, like Gecko) draw.io/21.2.8 Chrome/112.0.5615.165 Electron/24.2.0 Safari/537.36" etag="xJUILkM_eKXfX6amTyEn" version="21.2.8" type="device">
  <diagram id="V_CrxfPuPkxBuVXZt96X" name="Page-1">
    <mxGraphModel dx="11160" dy="5693" grid="1" gridSize="10" guides="1" tooltips="1" connect="1" arrows="1" fold="1" page="1" pageScale="1" pageWidth="4681" pageHeight="3300" math="0" shadow="0">
      <root>
        <mxCell id="0" />
        <mxCell id="1" parent="0" />
        <mxCell id="rYE0H0WppmivZqb76RKU-1" value="WGS" style="swimlane;fontStyle=0;align=center;verticalAlign=top;childLayout=stackLayout;horizontal=1;startSize=26;horizontalStack=0;resizeParent=1;resizeLast=0;collapsible=1;marginBottom=0;rounded=0;shadow=0;strokeWidth=1;" vertex="1" parent="1">
          <mxGeometry x="60" y="30" width="510" height="280" as="geometry">
            <mxRectangle x="130" y="380" width="160" height="26" as="alternateBounds" />
          </mxGeometry>
        </mxCell>
        <mxCell id="rYE0H0WppmivZqb76RKU-2" value="- CIRCUMFERENCE: float" style="text;align=left;verticalAlign=top;spacingLeft=4;spacingRight=4;overflow=hidden;rotatable=0;points=[[0,0.5],[1,0.5]];portConstraint=eastwest;rounded=0;shadow=0;html=0;" vertex="1" parent="rYE0H0WppmivZqb76RKU-1">
          <mxGeometry y="26" width="510" height="26" as="geometry" />
        </mxCell>
        <mxCell id="rYE0H0WppmivZqb76RKU-3" value="-Â LATITUDE_ORIGIN: float" style="text;align=left;verticalAlign=top;spacingLeft=4;spacingRight=4;overflow=hidden;rotatable=0;points=[[0,0.5],[1,0.5]];portConstraint=eastwest;rounded=0;shadow=0;html=0;" vertex="1" parent="rYE0H0WppmivZqb76RKU-1">
          <mxGeometry y="52" width="510" height="26" as="geometry" />
        </mxCell>
        <mxCell id="rYE0H0WppmivZqb76RKU-4" value="- LONGITUDE_ORIGIN: float" style="text;align=left;verticalAlign=top;spacingLeft=4;spacingRight=4;overflow=hidden;rotatable=0;points=[[0,0.5],[1,0.5]];portConstraint=eastwest;rounded=0;shadow=0;html=0;" vertex="1" parent="rYE0H0WppmivZqb76RKU-1">
          <mxGeometry y="78" width="510" height="26" as="geometry" />
        </mxCell>
        <mxCell id="rYE0H0WppmivZqb76RKU-17" value="" style="line;html=1;strokeWidth=1;align=left;verticalAlign=middle;spacingTop=-1;spacingLeft=3;spacingRight=3;rotatable=0;labelPosition=right;points=[];portConstraint=eastwest;" vertex="1" parent="rYE0H0WppmivZqb76RKU-1">
          <mxGeometry y="104" width="510" height="26" as="geometry" />
        </mxCell>
        <mxCell id="rYE0H0WppmivZqb76RKU-18" value="+ xy2latlon(x: float, y:float)-&gt;(lat:float, lon: float)" style="text;align=left;verticalAlign=top;spacingLeft=4;spacingRight=4;overflow=hidden;rotatable=0;points=[[0,0.5],[1,0.5]];portConstraint=eastwest;rounded=0;shadow=0;html=0;" vertex="1" parent="rYE0H0WppmivZqb76RKU-1">
          <mxGeometry y="130" width="510" height="26" as="geometry" />
        </mxCell>
        <mxCell id="rYE0H0WppmivZqb76RKU-19" value="+ latlon2xy(lat: float, lon: float) -&gt; (x: float, y: float)" style="text;align=left;verticalAlign=top;spacingLeft=4;spacingRight=4;overflow=hidden;rotatable=0;points=[[0,0.5],[1,0.5]];portConstraint=eastwest;rounded=0;shadow=0;html=0;" vertex="1" parent="rYE0H0WppmivZqb76RKU-1">
          <mxGeometry y="156" width="510" height="26" as="geometry" />
        </mxCell>
        <mxCell id="rYE0H0WppmivZqb76RKU-20" value="+ set_origin(lat: float, lon: float) -&gt; None" style="text;align=left;verticalAlign=top;spacingLeft=4;spacingRight=4;overflow=hidden;rotatable=0;points=[[0,0.5],[1,0.5]];portConstraint=eastwest;rounded=0;shadow=0;html=0;" vertex="1" parent="rYE0H0WppmivZqb76RKU-1">
          <mxGeometry y="182" width="510" height="26" as="geometry" />
        </mxCell>
        <mxCell id="rYE0H0WppmivZqb76RKU-21" value="+ get_origin() -&gt; (lat: float, lon: float)" style="text;align=left;verticalAlign=top;spacingLeft=4;spacingRight=4;overflow=hidden;rotatable=0;points=[[0,0.5],[1,0.5]];portConstraint=eastwest;rounded=0;shadow=0;html=0;" vertex="1" parent="rYE0H0WppmivZqb76RKU-1">
          <mxGeometry y="208" width="510" height="26" as="geometry" />
        </mxCell>
        <mxCell id="rYE0H0WppmivZqb76RKU-22" value="+ get_circumference() -&gt; float" style="text;align=left;verticalAlign=top;spacingLeft=4;spacingRight=4;overflow=hidden;rotatable=0;points=[[0,0.5],[1,0.5]];portConstraint=eastwest;rounded=0;shadow=0;html=0;" vertex="1" parent="rYE0H0WppmivZqb76RKU-1">
          <mxGeometry y="234" width="510" height="26" as="geometry" />
        </mxCell>
        <mxCell id="rYE0H0WppmivZqb76RKU-32" value="Field" style="swimlane;fontStyle=0;align=center;verticalAlign=top;childLayout=stackLayout;horizontal=1;startSize=26;horizontalStack=0;resizeParent=1;resizeLast=0;collapsible=1;marginBottom=0;rounded=0;shadow=0;strokeWidth=1;" vertex="1" parent="1">
          <mxGeometry x="70" y="360" width="510" height="550" as="geometry">
            <mxRectangle x="130" y="380" width="160" height="26" as="alternateBounds" />
          </mxGeometry>
        </mxCell>
        <mxCell id="rYE0H0WppmivZqb76RKU-33" value="- wgs_polygon_border: np.ndarray" style="text;align=left;verticalAlign=top;spacingLeft=4;spacingRight=4;overflow=hidden;rotatable=0;points=[[0,0.5],[1,0.5]];portConstraint=eastwest;rounded=0;shadow=0;html=0;" vertex="1" parent="rYE0H0WppmivZqb76RKU-32">
          <mxGeometry y="26" width="510" height="26" as="geometry" />
        </mxCell>
        <mxCell id="rYE0H0WppmivZqb76RKU-34" value="- wgs_polygon_obstacle: np.ndarray" style="text;align=left;verticalAlign=top;spacingLeft=4;spacingRight=4;overflow=hidden;rotatable=0;points=[[0,0.5],[1,0.5]];portConstraint=eastwest;rounded=0;shadow=0;html=0;" vertex="1" parent="rYE0H0WppmivZqb76RKU-32">
          <mxGeometry y="52" width="510" height="26" as="geometry" />
        </mxCell>
        <mxCell id="rYE0H0WppmivZqb76RKU-35" value="- polygon_border: np.ndarray" style="text;align=left;verticalAlign=top;spacingLeft=4;spacingRight=4;overflow=hidden;rotatable=0;points=[[0,0.5],[1,0.5]];portConstraint=eastwest;rounded=0;shadow=0;html=0;" vertex="1" parent="rYE0H0WppmivZqb76RKU-32">
          <mxGeometry y="78" width="510" height="26" as="geometry" />
        </mxCell>
        <mxCell id="rYE0H0WppmivZqb76RKU-36" value="- polygon_obstacle: np.ndarray" style="text;align=left;verticalAlign=top;spacingLeft=4;spacingRight=4;overflow=hidden;rotatable=0;points=[[0,0.5],[1,0.5]];portConstraint=eastwest;rounded=0;shadow=0;html=0;" vertex="1" parent="rYE0H0WppmivZqb76RKU-32">
          <mxGeometry y="104" width="510" height="26" as="geometry" />
        </mxCell>
        <mxCell id="rYE0H0WppmivZqb76RKU-37" value="- polygon_border_shapely: Polygon" style="text;align=left;verticalAlign=top;spacingLeft=4;spacingRight=4;overflow=hidden;rotatable=0;points=[[0,0.5],[1,0.5]];portConstraint=eastwest;rounded=0;shadow=0;html=0;" vertex="1" parent="rYE0H0WppmivZqb76RKU-32">
          <mxGeometry y="130" width="510" height="26" as="geometry" />
        </mxCell>
        <mxCell id="rYE0H0WppmivZqb76RKU-38" value="- polygon_obstacle_shapely: Polygon" style="text;align=left;verticalAlign=top;spacingLeft=4;spacingRight=4;overflow=hidden;rotatable=0;points=[[0,0.5],[1,0.5]];portConstraint=eastwest;rounded=0;shadow=0;html=0;" vertex="1" parent="rYE0H0WppmivZqb76RKU-32">
          <mxGeometry y="156" width="510" height="26" as="geometry" />
        </mxCell>
        <mxCell id="rYE0H0WppmivZqb76RKU-63" value="- line_border_shapely: LineString" style="text;align=left;verticalAlign=top;spacingLeft=4;spacingRight=4;overflow=hidden;rotatable=0;points=[[0,0.5],[1,0.5]];portConstraint=eastwest;rounded=0;shadow=0;html=0;" vertex="1" parent="rYE0H0WppmivZqb76RKU-32">
          <mxGeometry y="182" width="510" height="26" as="geometry" />
        </mxCell>
        <mxCell id="rYE0H0WppmivZqb76RKU-64" value="- line_obstacle_shapely: LineString" style="text;align=left;verticalAlign=top;spacingLeft=4;spacingRight=4;overflow=hidden;rotatable=0;points=[[0,0.5],[1,0.5]];portConstraint=eastwest;rounded=0;shadow=0;html=0;" vertex="1" parent="rYE0H0WppmivZqb76RKU-32">
          <mxGeometry y="208" width="510" height="26" as="geometry" />
        </mxCell>
        <mxCell id="rYE0H0WppmivZqb76RKU-48" value="" style="line;html=1;strokeWidth=1;align=left;verticalAlign=middle;spacingTop=-1;spacingLeft=3;spacingRight=3;rotatable=0;labelPosition=right;points=[];portConstraint=eastwest;" vertex="1" parent="rYE0H0WppmivZqb76RKU-32">
          <mxGeometry y="234" width="510" height="26" as="geometry" />
        </mxCell>
        <mxCell id="rYE0H0WppmivZqb76RKU-62" value="+ is_loc_legal(loc: np.ndarray) -&gt; bool" style="text;align=left;verticalAlign=top;spacingLeft=4;spacingRight=4;overflow=hidden;rotatable=0;points=[[0,0.5],[1,0.5]];portConstraint=eastwest;rounded=0;shadow=0;html=0;" vertex="1" parent="rYE0H0WppmivZqb76RKU-32">
          <mxGeometry y="260" width="510" height="26" as="geometry" />
        </mxCell>
        <mxCell id="rYE0H0WppmivZqb76RKU-65" value="- border_contains(loc: np.ndarray) -&gt; bool" style="text;align=left;verticalAlign=top;spacingLeft=4;spacingRight=4;overflow=hidden;rotatable=0;points=[[0,0.5],[1,0.5]];portConstraint=eastwest;rounded=0;shadow=0;html=0;" vertex="1" parent="rYE0H0WppmivZqb76RKU-32">
          <mxGeometry y="286" width="510" height="26" as="geometry" />
        </mxCell>
        <mxCell id="rYE0H0WppmivZqb76RKU-66" value="- obstacle_contains(loc: np.ndarray) -&gt; bool" style="text;align=left;verticalAlign=top;spacingLeft=4;spacingRight=4;overflow=hidden;rotatable=0;points=[[0,0.5],[1,0.5]];portConstraint=eastwest;rounded=0;shadow=0;html=0;" vertex="1" parent="rYE0H0WppmivZqb76RKU-32">
          <mxGeometry y="312" width="510" height="26" as="geometry" />
        </mxCell>
        <mxCell id="rYE0H0WppmivZqb76RKU-67" value="- is_loc_on_edge_of_obstacle(loc: np.ndarray) -&gt; bool" style="text;align=left;verticalAlign=top;spacingLeft=4;spacingRight=4;overflow=hidden;rotatable=0;points=[[0,0.5],[1,0.5]];portConstraint=eastwest;rounded=0;shadow=0;html=0;" vertex="1" parent="rYE0H0WppmivZqb76RKU-32">
          <mxGeometry y="338" width="510" height="26" as="geometry" />
        </mxCell>
        <mxCell id="rYE0H0WppmivZqb76RKU-68" value="+ is_path_legal(loc_start: np.ndarray, loc_end: np.ndarray) -&gt; bool" style="text;align=left;verticalAlign=top;spacingLeft=4;spacingRight=4;overflow=hidden;rotatable=0;points=[[0,0.5],[1,0.5]];portConstraint=eastwest;rounded=0;shadow=0;html=0;" vertex="1" parent="rYE0H0WppmivZqb76RKU-32">
          <mxGeometry y="364" width="510" height="26" as="geometry" />
        </mxCell>
        <mxCell id="rYE0H0WppmivZqb76RKU-69" value="- is_border_in_the_way(loc_start: np.ndarray, loc_end: np.ndarray) -&gt; bool" style="text;align=left;verticalAlign=top;spacingLeft=4;spacingRight=4;overflow=hidden;rotatable=0;points=[[0,0.5],[1,0.5]];portConstraint=eastwest;rounded=0;shadow=0;html=0;" vertex="1" parent="rYE0H0WppmivZqb76RKU-32">
          <mxGeometry y="390" width="510" height="26" as="geometry" />
        </mxCell>
        <mxCell id="rYE0H0WppmivZqb76RKU-70" value="- is_obstacle_in_the_way(loc_start: np.ndarray, loc_end: np.ndarray) -&gt; bool" style="text;align=left;verticalAlign=top;spacingLeft=4;spacingRight=4;overflow=hidden;rotatable=0;points=[[0,0.5],[1,0.5]];portConstraint=eastwest;rounded=0;shadow=0;html=0;" vertex="1" parent="rYE0H0WppmivZqb76RKU-32">
          <mxGeometry y="416" width="510" height="26" as="geometry" />
        </mxCell>
        <mxCell id="rYE0H0WppmivZqb76RKU-71" value="+ get_closest_intersect_point(loc_start: np.ndarray, loc_end: np.ndarray) -&gt; np.ndarray" style="text;align=left;verticalAlign=top;spacingLeft=4;spacingRight=4;overflow=hidden;rotatable=0;points=[[0,0.5],[1,0.5]];portConstraint=eastwest;rounded=0;shadow=0;html=0;" vertex="1" parent="rYE0H0WppmivZqb76RKU-32">
          <mxGeometry y="442" width="510" height="26" as="geometry" />
        </mxCell>
        <mxCell id="rYE0H0WppmivZqb76RKU-72" value="- get_path_intersect(loc_start: np.ndarray, loc_end: np.ndarray) -&gt; np.ndarray" style="text;align=left;verticalAlign=top;spacingLeft=4;spacingRight=4;overflow=hidden;rotatable=0;points=[[0,0.5],[1,0.5]];portConstraint=eastwest;rounded=0;shadow=0;html=0;" vertex="1" parent="rYE0H0WppmivZqb76RKU-32">
          <mxGeometry y="468" width="510" height="26" as="geometry" />
        </mxCell>
        <mxCell id="rYE0H0WppmivZqb76RKU-73" value="+ get_polygon_border() -&gt; np.ndarray" style="text;align=left;verticalAlign=top;spacingLeft=4;spacingRight=4;overflow=hidden;rotatable=0;points=[[0,0.5],[1,0.5]];portConstraint=eastwest;rounded=0;shadow=0;html=0;" vertex="1" parent="rYE0H0WppmivZqb76RKU-32">
          <mxGeometry y="494" width="510" height="26" as="geometry" />
        </mxCell>
        <mxCell id="rYE0H0WppmivZqb76RKU-74" value="+ get_polygon_obstacle() -&gt; np.ndarray" style="text;align=left;verticalAlign=top;spacingLeft=4;spacingRight=4;overflow=hidden;rotatable=0;points=[[0,0.5],[1,0.5]];portConstraint=eastwest;rounded=0;shadow=0;html=0;" vertex="1" parent="rYE0H0WppmivZqb76RKU-32">
          <mxGeometry y="520" width="510" height="26" as="geometry" />
        </mxCell>
        <mxCell id="rYE0H0WppmivZqb76RKU-106" value="Prior" style="swimlane;fontStyle=0;align=center;verticalAlign=top;childLayout=stackLayout;horizontal=1;startSize=26;horizontalStack=0;resizeParent=1;resizeLast=0;collapsible=1;marginBottom=0;rounded=0;shadow=0;strokeWidth=1;" vertex="1" parent="1">
          <mxGeometry x="80" y="940" width="510" height="110" as="geometry">
            <mxRectangle x="130" y="380" width="160" height="26" as="alternateBounds" />
          </mxGeometry>
        </mxCell>
        <mxCell id="rYE0H0WppmivZqb76RKU-113" value="- line_border_shapely: LineString" style="text;align=left;verticalAlign=top;spacingLeft=4;spacingRight=4;overflow=hidden;rotatable=0;points=[[0,0.5],[1,0.5]];portConstraint=eastwest;rounded=0;shadow=0;html=0;" vertex="1" parent="rYE0H0WppmivZqb76RKU-106">
          <mxGeometry y="26" width="510" height="26" as="geometry" />
        </mxCell>
        <mxCell id="rYE0H0WppmivZqb76RKU-115" value="" style="line;html=1;strokeWidth=1;align=left;verticalAlign=middle;spacingTop=-1;spacingLeft=3;spacingRight=3;rotatable=0;labelPosition=right;points=[];portConstraint=eastwest;" vertex="1" parent="rYE0H0WppmivZqb76RKU-106">
          <mxGeometry y="52" width="510" height="26" as="geometry" />
        </mxCell>
        <mxCell id="rYE0H0WppmivZqb76RKU-125" value="+ get_polygon_border() -&gt; np.ndarray" style="text;align=left;verticalAlign=top;spacingLeft=4;spacingRight=4;overflow=hidden;rotatable=0;points=[[0,0.5],[1,0.5]];portConstraint=eastwest;rounded=0;shadow=0;html=0;" vertex="1" parent="rYE0H0WppmivZqb76RKU-106">
          <mxGeometry y="78" width="510" height="26" as="geometry" />
        </mxCell>
      </root>
    </mxGraphModel>
  </diagram>
</mxfile>
